# xmcd CD database file
#
# Track frame offsets:
#	150
#	15840
#	36058
#	53253
#	66578
#	81962
#	106972
#	123735
#	137962
#	154356
#	168479
#	185890
#	197616
#	217123
#	230455
#
# Disc length: 3271 seconds
#
# Revision: 0
# Processed by: cddbd v1.5.2PL0 Copyright (c) Steve Scherf et al.
# Submitted via: CDex 1.51
#
DISCID=d70cc50f
DTITLE=Victor e Leo - Ao Vivo em Uberlândia
DYEAR=1900
DGENRE=Country
TTITLE0=1. Fada 
TTITLE1=2. Sinto Falta de Você 
TTITLE2=3. 60 Dias Apaixonado - Fazenda São Francisco ( Maior Proeza ) 
TTITLE3=4. Amigo Apaixonado 
TTITLE4=5. Tem que Ser Você 
TTITLE5=6. Vida Boa 
TTITLE6=7. Sem Você 
TTITLE7=8. Nova York 
TTITLE8=9. Arapuca 
TTITLE9=10. Lembranças de Amor 
TTITLE10=11. Jogo da Vida 
TTITLE11=12. O Granfino e o Caipira 
TTITLE12=13. Fotos 
TTITLE13=14. Meu Eu em Você 
TTITLE14=15. Chuva de Bruxaria  
EXTD=
EXTT0=
EXTT1=
EXTT2=
EXTT3=
EXTT4=
EXTT5=
EXTT6=
EXTT7=
EXTT8=
EXTT9=
EXTT10=
EXTT11=
EXTT12=
EXTT13=
EXTT14=
PLAYORDER=
